<?xml version="1.0" standalone="no"?>
<!DOCTYPE svg PUBLIC "-//W3C//DTD SVG 20010904//EN"
 "http://www.w3.org/TR/2001/REC-SVG-20010904/DTD/svg10.dtd">
<svg version="1.0" xmlns="http://www.w3.org/2000/svg"
 width="706.000000pt" height="706.000000pt" viewBox="0 0 706.000000 706.000000"
 preserveAspectRatio="xMidYMid meet">
<metadata>
Created by potrace 1.14, written by Peter Selinger 2001-2017
</metadata>
<g transform="translate(0.000000,706.000000) scale(0.100000,-0.100000)"
fill="#000000" stroke="none">
<path d="M3308 7056 c-1 -2 -41 -6 -88 -10 -47 -4 -96 -8 -110 -10 -14 -3 -43
-7 -65 -10 -621 -81 -1224 -342 -1730 -749 -193 -155 -473 -438 -564 -571 -8
-12 -18 -23 -21 -26 -3 -3 -36 -48 -73 -100 -37 -52 -70 -99 -74 -105 -57 -72
-228 -392 -298 -555 -61 -141 -142 -375 -169 -490 -2 -8 -11 -42 -19 -75 -8
-33 -18 -76 -21 -95 -3 -19 -8 -46 -11 -60 -46 -232 -60 -388 -60 -675 0 -265
8 -369 45 -585 28 -160 27 -157 61 -287 120 -468 331 -899 628 -1283 65 -84
85 -108 171 -205 349 -391 818 -717 1315 -915 284 -113 523 -174 875 -224 193
-28 646 -28 850 -1 19 2 58 7 85 11 28 3 104 17 170 30 66 14 132 27 147 30
14 3 57 14 95 25 37 11 78 22 89 25 60 12 296 99 424 156 463 206 895 525
1220 898 36 41 67 77 70 80 30 27 226 301 277 385 7 11 31 51 54 88 165 273
322 676 398 1022 11 50 22 108 26 130 3 23 7 50 9 62 3 12 7 43 11 70 4 26 9
59 11 73 25 158 25 696 -1 840 -2 14 -6 43 -9 65 -7 59 -25 165 -40 240 -46
222 -144 523 -236 720 -78 170 -99 209 -163 320 -295 506 -700 924 -1193 1232
-391 245 -885 430 -1304 488 -25 3 -52 8 -60 10 -8 2 -46 7 -85 11 -38 3 -79
8 -90 11 -22 5 -541 13 -547 9z"/>
</g>
</svg>
