<svg width="206" height="206" viewBox="0 0 206 206" fill="none" xmlns="http://www.w3.org/2000/svg">
<path d="M18.4543 144.028H31.9301C32.2212 144.031 32.5034 143.929 32.7244 143.739C32.9455 143.55 33.0902 143.286 33.1318 142.998L36.1359 127.377H46.6076C50.9911 127.486 55.3646 126.907 59.5684 125.66C62.9744 124.533 66.0837 122.656 68.6668 120.167C70.9865 118.081 72.9316 115.614 74.4176 112.871C75.8873 110.188 76.9298 107.292 77.5076 104.287C78.4195 101.138 78.5761 97.818 77.9647 94.5967C77.3532 91.3755 75.991 88.3437 73.9884 85.7475C71.6682 83.3898 68.8599 81.5687 65.7607 80.4121C62.6616 79.2555 59.3469 78.7914 56.0493 79.0525H30.2993C29.9904 79.0664 29.6952 79.1841 29.4616 79.3866C29.2279 79.5891 29.0694 79.8646 29.0118 80.1683L17.1668 142.483C17.0356 142.844 17.0356 143.239 17.1668 143.599C17.3305 143.77 17.5333 143.898 17.7576 143.973C17.9819 144.047 18.2209 144.066 18.4543 144.028ZM42.9168 91.155H51.5001C53.1331 90.9356 54.7934 91.0427 56.3847 91.47C57.976 91.8973 59.4666 92.6363 60.7701 93.6442C62.2293 95.1892 62.4868 98.1075 61.7143 102.227C61.2839 105.913 59.5484 109.324 56.8218 111.841C53.4223 113.993 49.4173 114.987 45.4059 114.673H38.5393L42.9168 91.155ZM127.033 83.0008C122.387 79.5846 116.633 78.0237 110.897 78.6233H100.683L103.515 63.5167C103.599 63.3426 103.642 63.1519 103.642 62.9587C103.642 62.7656 103.599 62.5749 103.515 62.4008C103.21 62.2892 102.876 62.2892 102.571 62.4008H89.0951C88.804 62.3978 88.5218 62.5006 88.3007 62.6901C88.0797 62.8795 87.935 63.1427 87.8934 63.4308L76.0484 125.832C75.9657 125.991 75.9225 126.167 75.9225 126.347C75.9225 126.526 75.9657 126.703 76.0484 126.862C76.1497 127.02 76.2893 127.15 76.4544 127.24C76.6194 127.33 76.8046 127.377 76.9926 127.377H90.2109C90.5153 127.377 90.8086 127.263 91.0317 127.056C91.2547 126.848 91.3908 126.564 91.4126 126.261L98.0218 91.3267H107.549C111.412 91.3267 112.785 92.185 113.214 92.7C113.564 93.5436 113.744 94.4477 113.744 95.3608C113.744 96.2739 113.564 97.1781 113.214 98.0217L107.978 125.832C107.896 125.991 107.852 126.167 107.852 126.347C107.852 126.526 107.896 126.703 107.978 126.862C108.085 127.015 108.226 127.141 108.39 127.231C108.554 127.32 108.736 127.37 108.923 127.377H122.313C122.621 127.363 122.917 127.245 123.15 127.043C123.384 126.84 123.542 126.565 123.6 126.261L129.093 97.0775C129.98 94.7503 130.256 92.2351 129.895 89.7711C129.535 87.3071 128.549 84.9764 127.033 83.0008ZM165.83 78.6233H138.964C138.806 78.6116 138.648 78.6313 138.497 78.6811C138.347 78.7309 138.208 78.8099 138.089 78.9136C137.969 79.0173 137.871 79.1436 137.8 79.2853C137.73 79.427 137.688 79.5812 137.677 79.7392L125.145 142.483C125.067 142.659 125.027 142.849 125.027 143.041C125.027 143.233 125.067 143.424 125.145 143.599C125.26 143.737 125.405 143.847 125.568 143.921C125.732 143.995 125.91 144.032 126.089 144.028H140.08C140.386 144.053 140.689 143.96 140.928 143.769C141.168 143.578 141.325 143.302 141.368 142.998L144.543 127.377H155.444C159.968 127.476 164.482 126.897 168.834 125.66C172.582 124.617 176.045 122.739 178.963 120.167C181.359 118.087 183.39 115.621 184.971 112.871C186.468 110.192 187.539 107.296 188.147 104.287C189.082 101.135 189.243 97.8036 188.616 94.5759C187.988 91.3481 186.59 88.3195 184.542 85.7475C182.115 83.2893 179.188 81.3812 175.96 80.1521C172.732 78.923 169.277 78.4016 165.83 78.6233ZM171.152 102.399C170.638 106.116 168.811 109.526 166.002 112.012C162.479 114.175 158.363 115.166 154.243 114.845H147.376L152.011 91.155H160.594C164.025 90.7345 167.489 91.6233 170.293 93.6442C171.667 95.1892 171.667 98.1075 171.152 102.399Z" fill="white"/>
</svg>
