<svg width="179" height="179" viewBox="0 0 179 179" fill="none" xmlns="http://www.w3.org/2000/svg">
<g clip-path="url(#clip0_308_28)">
<path d="M151.87 65.5867C148.654 65.3071 142.501 66.9852 139.704 80.6899C139.704 88.9406 141.662 93.975 144.738 95.793C150.472 97.4711 157.184 89.7797 157.184 81.5289C157.464 75.7953 157.744 68.6633 151.87 65.5867Z" fill="white"/>
<path d="M162.638 36.0797H16.3617C7.27188 36.0797 0 43.3516 0 52.3016V108.239C0 117.189 7.27188 124.601 16.3617 124.601H162.778C171.728 124.601 179.14 117.329 179.14 108.239V52.3016C179 43.3516 171.728 36.0797 162.638 36.0797ZM61.5313 111.875C61.5313 111.875 51.882 99.1492 49.6445 89.5C47.407 79.9907 46.8477 84.3258 46.8477 84.3258C46.8477 84.3258 39.1563 101.666 31.1852 112.714C23.2141 123.762 19.2984 107.26 19.2984 107.26C16.5016 103.904 8.53047 55.0985 8.53047 55.0985C13.0055 42.6524 20.6969 52.861 20.6969 52.861L28.3883 92.5766C28.3883 92.5766 40.275 68.2438 44.3305 61.9508C48.2461 55.6578 55.0984 57.4758 55.6578 63.9086C56.2172 70.4813 62.7899 88.2414 62.7899 88.2414C63.3492 69.5024 71.0406 51.6024 72.1594 48.8055C73.2781 46.0086 85.7242 42.5125 83.4867 54.5391C78.0328 67.8242 72.7188 95.9328 74.1172 111.316C70.3414 122.923 61.5313 111.875 61.5313 111.875ZM111.735 105.582C108.099 107.26 94.5344 116.63 84.8852 95.6532C78.8719 74.5367 92.2969 59.0141 92.2969 59.0141C92.2969 59.0141 109.777 44.0508 121.664 63.9086C131.313 85.7242 115.371 103.904 111.735 105.582ZM156.205 105.582C152.57 107.26 139.005 116.63 129.355 95.6532C123.342 74.5367 136.767 59.0141 136.767 59.0141C136.767 59.0141 154.388 43.911 166.274 63.7688C175.923 85.7242 159.841 103.904 156.205 105.582Z" fill="white"/>
<path d="M107.26 65.5867C104.044 65.3071 97.8905 66.9852 95.0937 80.6899C95.0937 88.9406 97.0515 93.975 100.128 95.793C105.862 97.4711 112.574 89.7797 112.574 81.5289C112.994 75.7953 113.273 68.6633 107.26 65.5867ZM85.7241 124.601L116.909 142.92L110.337 124.601L92.4366 119.566L85.7241 124.601Z" fill="white"/>
</g>
<defs>
<clipPath id="clip0_308_28">
<rect width="179" height="179" fill="white"/>
</clipPath>
</defs>
</svg>
