<svg width="155" height="155" viewBox="0 0 155 155" fill="none" xmlns="http://www.w3.org/2000/svg">
<path d="M1.70508 1.70496H153.295V153.296H1.70508V1.70496Z" fill="white"/>
<path d="M140.889 117.141C139.779 110.226 135.269 104.417 121.911 99.0002C117.271 96.8678 112.098 95.3408 110.556 91.8242C110.009 89.7777 109.936 88.6249 110.283 87.3861C111.277 83.3658 116.076 82.1125 119.879 83.2653C122.329 84.0863 124.648 85.9742 126.047 88.9858C132.588 84.7499 132.575 84.7778 137.142 81.8667C135.47 79.2741 134.578 78.0776 133.483 76.9684C129.549 72.5739 124.188 70.3107 115.614 70.4839L111.148 71.0615C106.869 72.1428 102.791 74.3891 100.399 77.4007C93.2229 85.5431 95.2694 99.7934 104.001 105.658C112.604 112.115 125.241 113.584 126.855 119.621C128.426 127.013 121.423 129.406 114.463 128.556C109.333 127.489 106.48 124.882 103.396 120.141C97.7191 123.426 97.7191 123.426 91.8824 126.783C93.2665 129.809 94.7208 131.178 97.041 133.8C108.022 144.938 135.5 144.391 140.429 127.532C140.629 126.953 141.956 123.093 140.889 117.141ZM84.1142 71.3763H69.9354L69.8772 108.034C69.8772 115.83 70.2805 122.977 69.0126 125.167C66.9383 129.476 61.5629 128.942 59.1132 128.106C56.6199 126.881 55.3521 125.138 53.8832 122.675C53.4799 121.968 53.1772 121.421 53.0755 121.378L41.5474 128.438C43.4643 132.372 46.2882 135.787 49.9053 138.006C55.3085 141.249 62.5704 142.243 70.1654 140.499C75.1085 139.059 79.3734 136.077 81.6064 131.537C84.8347 125.585 84.1421 118.381 84.113 110.413C84.1857 97.4139 84.1142 84.4169 84.1142 71.3763Z" fill="#1E1E1E"/>
</svg>
