<svg width="181" height="181" viewBox="0 0 181 181" fill="none" xmlns="http://www.w3.org/2000/svg">
<path d="M90.4999 80.3186C97.7629 80.3186 103.651 74.4308 103.651 67.1679C103.651 59.9049 97.7629 54.0171 90.4999 54.0171C83.2369 54.0171 77.3491 59.9049 77.3491 67.1679C77.3491 74.4308 83.2369 80.3186 90.4999 80.3186Z" fill="white"/>
<path d="M90.5 115.529C100.823 125.569 111.004 131.508 119.205 131.508C121.892 131.508 124.437 130.942 126.559 129.669C133.912 125.427 136.598 114.822 134.053 99.6914C133.629 97.0046 133.063 94.3179 132.356 91.4898C135.184 90.6414 137.73 89.7929 140.275 88.9445C154.557 83.4296 162.476 75.7937 162.476 67.4507C162.476 58.9664 154.557 51.3304 140.275 45.957C137.73 44.9671 135.184 44.1187 132.356 43.4117C133.063 40.5835 133.629 37.8968 134.053 35.2101C136.457 19.7968 133.77 9.04995 126.417 4.80776C124.296 3.53511 121.751 2.96948 119.064 2.96948C111.004 2.96948 100.681 8.90854 90.3585 18.9484C80.1773 8.90854 69.996 2.96948 61.7945 2.96948C59.1078 2.96948 56.5625 3.53511 54.4414 4.80776C47.0882 9.04995 44.4015 19.6554 46.9468 34.7859C47.371 37.4726 47.9367 40.1593 48.6437 42.9875C45.8156 43.8359 43.2703 44.6843 40.7249 45.5328C26.4429 51.0476 18.5242 58.6835 18.5242 67.0265C18.5242 75.5109 26.4429 83.1468 40.7249 88.5203C43.2703 89.5101 45.8156 90.3585 48.6437 91.0656C47.9367 93.8937 47.371 96.5804 46.9468 99.2671C44.5429 114.398 47.2296 125.144 54.4414 129.245C56.5625 130.518 59.1078 131.084 61.7945 131.084C69.996 131.366 80.1773 125.427 90.5 115.529ZM82.5812 96.439C85.1265 96.5804 87.8132 96.5804 90.5 96.5804C93.1867 96.5804 95.8734 96.5804 98.4187 96.439C95.8734 99.8328 93.1867 102.944 90.5 105.913C87.8132 102.944 85.1265 99.8328 82.5812 96.439ZM65.0468 81.8742C66.4609 84.2781 67.7335 86.5406 69.289 88.8031C64.9054 88.2375 60.8046 87.5304 56.8453 86.682C58.1179 82.864 59.532 78.9046 61.2289 74.9453C62.3601 77.2078 63.6328 79.6117 65.0468 81.8742ZM56.8453 47.7953C60.8046 46.9468 64.9054 46.2398 69.289 45.6742C67.875 47.9367 66.4609 50.1992 65.0468 52.6031C63.6328 55.007 62.3601 57.2695 61.2289 59.6734C59.3906 55.5726 57.9765 51.6132 56.8453 47.7953ZM64.6226 67.1679C66.4609 63.35 68.4406 59.532 70.7031 55.714C72.8242 52.0375 75.2281 48.3609 77.632 44.6843C81.8742 44.4015 86.1164 44.2601 90.5 44.2601C95.025 44.2601 99.2671 44.4015 103.368 44.6843C105.913 48.3609 108.176 52.0375 110.297 55.714C112.559 59.532 114.539 63.35 116.377 67.1679C114.539 70.9859 112.559 74.8039 110.297 78.6218C108.176 82.2984 105.772 85.975 103.368 89.6515C99.1257 89.9343 94.8835 90.0757 90.5 90.0757C85.975 90.0757 81.7328 89.9343 77.632 89.6515C75.0867 85.975 72.8242 82.2984 70.7031 78.6218C68.4406 74.8039 66.4609 70.9859 64.6226 67.1679ZM119.912 59.532L116.094 52.4617C114.68 50.0578 113.408 47.7953 111.852 45.5328C116.236 46.0984 120.337 46.8054 124.296 47.6539C123.023 51.6132 121.609 55.5726 119.912 59.532ZM119.912 74.8039C121.609 78.7632 123.023 82.7226 124.296 86.5406C120.337 87.389 116.236 88.096 111.852 88.6617C113.266 86.3992 114.68 84.1367 116.094 81.7328C117.367 79.6117 118.64 77.2078 119.912 74.8039ZM123.165 123.872C122.034 124.579 120.619 124.862 119.064 124.862C112.135 124.862 103.509 119.205 95.0249 110.721C99.1257 106.337 103.085 101.388 107.044 95.8734C113.691 95.3078 120.054 94.3179 125.993 92.9039C126.7 95.4492 127.124 97.9945 127.548 100.54C129.528 112.559 127.973 121.185 123.165 123.872ZM130.518 49.3507C146.355 53.8757 155.83 60.8046 155.83 67.1679C155.83 72.6828 149.325 78.1976 137.871 82.5812C135.609 83.4296 133.063 84.2781 130.518 84.9851C128.68 79.1875 126.417 73.2484 123.589 67.1679C126.417 61.0875 128.821 55.1484 130.518 49.3507ZM119.205 9.47417C120.761 9.47417 122.034 9.75698 123.306 10.464C127.973 13.1507 129.669 21.6351 127.69 33.796C127.266 36.2 126.7 38.7453 126.134 41.432C120.195 40.1593 113.832 39.1695 107.186 38.4625C103.368 32.9476 99.2671 27.9984 95.1664 23.6148C103.651 15.2718 112.277 9.47417 119.205 9.47417ZM98.4187 37.8968C95.8734 37.7554 93.1867 37.7554 90.5 37.7554C87.8132 37.7554 85.1265 37.7554 82.5812 37.8968C85.1265 34.5031 87.8132 31.3921 90.5 28.4226C93.1867 31.3921 95.8734 34.6445 98.4187 37.8968ZM57.8351 10.464C58.9664 9.75698 60.3804 9.47417 61.9359 9.47417C68.8648 9.47417 77.4906 15.1304 85.9749 23.6148C81.8742 27.9984 77.9148 32.9476 73.9554 38.4625C67.3093 39.0281 60.946 40.0179 55.007 41.432C54.3 38.8867 53.8757 36.3414 53.4515 33.796C51.4718 21.7765 53.0273 13.2921 57.8351 10.464ZM50.482 84.9851C34.6445 80.4601 25.1703 73.5312 25.1703 67.1679C25.1703 61.6531 31.675 56.1382 43.1289 51.7546C45.3914 50.9062 47.9367 50.0578 50.482 49.3507C52.3203 55.1484 54.5828 61.0875 57.4109 67.1679C54.5828 73.2484 52.1789 79.3289 50.482 84.9851ZM53.4515 100.54C53.8757 98.1359 54.4414 95.5906 55.007 92.9039C60.946 94.1765 67.3093 95.1664 73.9554 95.8734C77.7734 101.388 81.8742 106.337 85.9749 110.721C77.4906 119.064 68.8648 124.862 61.9359 124.862C60.3804 124.862 59.1078 124.579 57.8351 123.872C53.0273 121.185 51.4718 112.559 53.4515 100.54ZM47.5124 158.799C50.6234 154.981 50.7648 150.739 49.0679 146.497C47.371 142.255 43.8359 140.275 39.4523 140.134C34.2203 139.992 28.8468 140.134 23.6148 140.134H22.625V176.758H26.8671V162.9H33.5132C34.3617 162.9 35.0687 163.183 35.4929 163.89L43.9773 177.041C44.1187 177.323 44.5429 177.748 44.8257 177.748H50.3406C46.9468 172.516 43.6945 167.566 40.3007 162.476C43.2703 162.052 45.8156 161.062 47.5124 158.799ZM26.8671 158.516V144.517H28.4226C31.675 144.517 35.0687 144.376 38.321 144.659C42.139 144.8 44.8257 147.769 44.8257 151.587C44.8257 155.405 41.7148 158.375 37.8968 158.516C34.5031 158.658 31.1093 158.516 26.8671 158.516ZM81.5914 160.355C79.3289 150.456 70.2789 147.911 63.3499 151.022C57.9765 153.426 55.5726 158.092 55.4312 163.89C55.2898 168.273 56.5625 172.233 59.9562 175.202C63.7742 178.596 68.4406 179.02 73.2484 178.172C75.9351 177.606 78.339 176.334 80.1773 174.354C79.4703 173.364 78.7632 172.374 78.0562 171.526C74.0968 174.919 69.7132 176.051 64.9054 173.788C61.7945 172.233 60.239 168.415 59.9562 165.587H81.8742V163.748C82.0156 162.476 81.8742 161.344 81.5914 160.355ZM60.239 162.617C59.8148 158.375 64.057 153.85 68.7234 153.85C74.0968 153.709 77.4906 156.961 77.632 162.617H60.239ZM103.651 150.315C101.53 149.891 99.2671 149.749 97.146 149.891C93.7523 150.173 90.7828 151.729 88.3789 154.274C89.0859 155.264 89.6515 156.254 90.5 157.385C90.7828 157.102 91.0656 156.819 91.3484 156.678C93.6109 154.557 96.2976 153.426 99.55 153.709C102.095 153.85 104.499 154.698 105.206 157.244C105.772 159.223 105.63 161.344 105.772 163.466C105.348 163.466 105.206 163.324 105.065 163.183C101.671 160.355 97.8531 159.789 93.7523 160.779C89.9343 161.769 87.5304 164.738 87.2476 168.556C86.9648 172.94 88.9445 176.192 92.7625 177.748C95.1664 178.737 97.8531 178.737 100.398 178.172C102.378 177.748 103.227 176.616 106.055 175.061V176.899H110.014C110.014 171.243 110.155 164.314 110.014 157.809C110.014 153.709 107.61 151.163 103.651 150.315ZM105.63 168.132C105.489 168.556 105.63 168.98 105.63 169.405C105.63 172.374 104.923 173.364 102.095 174.495C100.116 175.202 97.9945 175.485 95.8734 174.778C93.4695 174.071 91.7726 171.95 91.7726 169.546C91.6312 167.142 93.1867 164.738 95.5906 164.031C98.8429 162.9 101.812 163.607 104.499 165.587C105.348 166.294 105.913 167.001 105.63 168.132ZM127.69 154.133C131.366 153.002 134.76 153.709 137.305 156.819L137.73 157.102C138.719 156.254 139.568 155.405 140.699 154.416C140.275 153.991 140.134 153.709 139.851 153.284C135.75 148.901 127.69 148.335 122.741 151.87C115.812 156.961 115.953 166.859 119.347 172.091C122.599 177.041 127.266 178.737 132.78 178.03C136.033 177.606 138.719 176.051 140.841 173.364C139.851 172.516 138.861 171.667 137.871 170.677C137.588 170.96 137.447 171.102 137.305 171.384C133.487 175.627 127.124 175.202 123.73 170.677C121.751 167.991 121.327 164.88 121.892 161.769C122.175 158.234 124.013 155.405 127.69 154.133ZM157.102 173.364C156.819 173.505 156.678 173.647 156.678 173.647C155.547 174.495 154.416 174.637 153.143 174.212C151.87 173.647 151.729 172.516 151.587 171.384V155.264C151.587 154.981 151.587 155.547 151.729 154.133H157.102V149.891H151.446V142.82H147.204V150.456H143.527C143.244 150.456 142.82 150.739 142.82 151.022C142.679 152.012 142.82 152.719 142.82 154.133H147.345V172.233C147.345 174.495 147.911 176.475 149.891 177.606C152.012 178.879 156.112 178.596 157.951 177.041C158.234 176.899 158.375 176.334 158.375 176.192C157.951 175.344 157.527 174.354 157.102 173.364Z" fill="white"/>
</svg>
