<svg width="205" height="206" viewBox="0 0 205 206" fill="none" xmlns="http://www.w3.org/2000/svg">
<path d="M102.5 17.1666C55.4353 17.1666 17.0833 55.7058 17.0833 103C17.0833 150.294 55.4353 188.833 102.5 188.833C149.564 188.833 187.917 150.294 187.917 103C187.917 55.7058 149.564 17.1666 102.5 17.1666ZM25.7103 103C25.7103 91.8416 28.102 81.1983 32.3728 71.585L69.0166 172.439C43.3916 159.907 25.7103 133.557 25.7103 103ZM102.5 180.164C94.9832 180.164 87.7228 179.048 80.8041 176.988L103.867 109.695L127.442 174.671C127.612 175.014 127.783 175.443 127.954 175.701C120.01 178.619 111.469 180.164 102.5 180.164ZM113.092 66.7783C117.704 66.5208 121.889 66.0058 121.889 66.0058C125.989 65.4908 125.562 59.3966 121.377 59.6541C121.377 59.6541 108.906 60.5983 100.877 60.5983C93.3603 60.5983 80.6332 59.6541 80.6332 59.6541C76.5332 59.4825 76.0208 65.8341 80.2062 66.0916C80.2062 66.0916 84.1353 66.6066 88.2353 66.8641L100.194 99.8241L83.3666 150.466L55.4353 66.7783C60.0478 66.6066 64.2332 66.0916 64.2332 66.0916C68.3332 65.5766 67.9062 59.4825 63.7207 59.74C63.7207 59.74 51.2499 60.6841 43.2207 60.6841C41.7687 60.6841 40.0603 60.6841 38.2666 60.5983C52.1041 39.655 75.6791 25.8358 102.5 25.8358C122.487 25.8358 140.681 33.475 154.348 46.0925C154.006 46.0925 153.664 46.0066 153.323 46.0066C145.806 46.0066 140.425 52.6158 140.425 59.74C140.425 66.0916 144.098 71.4991 147.942 77.8508C150.846 83.0008 154.262 89.61 154.262 99.1375C154.262 105.747 151.7 113.386 148.454 124.115L140.767 149.865L113.092 66.7783ZM169.894 66.0058C179.488 83.65 181.848 104.361 176.471 123.728C171.095 143.095 158.406 159.587 141.108 169.692L164.598 101.541C168.954 90.5541 170.406 81.7133 170.406 73.9025C170.406 71.07 170.235 68.4091 169.894 66.0058Z" fill="white"/>
</svg>
