<svg width="467" height="120" viewBox="0 0 467 120" fill="none" xmlns="http://www.w3.org/2000/svg">
<g clip-path="url(#clip0_308_46)">
<path d="M128.241 23.5557L131.791 26.1371C137.966 31.1386 141.515 36.786 142.287 43.2394C148.924 41.9487 157.413 42.9169 161.118 45.4983L164.514 47.596L163.897 48.8876C162.816 51.3069 162.508 51.9527 162.353 52.2751C156.334 64.3759 144.448 64.5371 138.891 64.3759C124.845 99.7099 94.9003 119.232 54.4573 119.232C35.781 119.232 21.5803 113.263 12.0096 101.484C-0.646846 85.9969 -0.646846 65.8278 0.433092 59.3744L0.742297 58.0827H112.342C118.206 58.0827 122.684 56.4705 124.845 55.1789C122.529 51.6293 121.757 47.596 121.603 45.3371C121.14 38.8837 122.684 32.1069 125.772 27.2666L128.241 23.5557ZM224.937 31.0479C226.183 31.0479 227.236 31.4666 228.1 32.3056C228.963 33.1438 229.395 34.2018 229.395 35.4815V75.3866C229.395 82.0369 227.074 87.665 222.432 92.269C217.735 96.9307 212.131 99.2611 205.622 99.2611C199.057 99.2611 193.453 96.9307 188.812 92.269C184.17 87.6082 181.85 81.9801 181.85 75.3866C181.85 68.7921 184.17 63.1649 188.812 58.5041C193.453 53.8415 199.057 51.5121 205.622 51.5121C211.254 51.5121 216.221 53.2598 220.522 56.7554V35.4815C220.522 34.2027 220.94 33.1438 221.775 32.3056C222.609 31.4666 223.664 31.0479 224.937 31.0479ZM258.22 51.5121C264.73 51.5121 270.333 53.8424 275.03 58.5032C277.351 60.8345 279.085 63.4067 280.231 66.2198C281.377 69.0339 281.964 72.0898 281.993 75.3866C281.993 82.0369 279.672 87.665 275.031 92.269C270.334 96.9307 264.73 99.2611 258.221 99.2611C251.654 99.2611 246.051 96.9307 241.411 92.269C236.768 87.6082 234.448 81.9801 234.448 75.3866C234.448 68.7921 236.769 63.1649 241.41 58.5041C246.051 53.8415 251.654 51.5121 258.22 51.5121ZM310.734 51.5121C316.705 51.5121 321.87 53.4449 326.229 57.3105C327.247 58.2192 327.756 59.3423 327.756 60.6779C327.756 61.9566 327.339 63.0229 326.504 63.8748C325.669 64.7276 324.615 65.1545 323.342 65.1545C322.29 65.1629 321.268 64.8009 320.455 64.1313C319.012 62.9093 317.498 61.985 315.913 61.3603C314.327 60.7347 312.602 60.4223 310.734 60.4223C308.668 60.4223 306.729 60.8125 304.918 61.5948C303.146 62.3495 301.533 63.4343 300.163 64.7918C298.798 66.1524 297.709 67.7672 296.958 69.546C296.18 71.3643 295.791 73.3108 295.791 75.3866C295.791 77.4614 296.18 79.4079 296.958 81.2272C297.709 83.0059 298.798 84.6207 300.163 85.9814C301.533 87.3389 303.146 88.4236 304.918 89.1783C306.729 89.9597 308.668 90.3508 310.734 90.3508C312.602 90.3508 314.327 90.0449 315.913 89.4348C317.498 88.8229 318.997 87.906 320.412 86.684C321.206 86.0876 322.139 85.7744 323.214 85.746C324.487 85.746 325.542 86.1655 326.376 87.0037C327.212 87.8427 327.629 88.9008 327.629 90.1805C327.629 91.4308 327.162 92.5255 326.229 93.4626C321.841 97.3282 316.677 99.2611 310.734 99.2611C304.168 99.2611 298.564 96.9307 293.923 92.269C289.282 87.6082 286.961 81.9801 286.961 75.3866C286.961 68.7921 289.282 63.1649 293.923 58.5041C298.564 53.8415 304.168 51.5121 310.734 51.5121ZM337.225 31.0479C338.442 31.0479 339.481 31.4812 340.344 32.3487C341.208 33.2153 341.64 34.2733 341.64 35.5246V68.7783L367.025 52.1936C367.732 51.7392 368.525 51.5121 369.402 51.5121C370.025 51.5121 370.605 51.6256 371.143 51.8528C371.681 52.08 372.148 52.3997 372.544 52.8119C372.939 53.2241 373.258 53.7005 373.499 54.2409C373.738 54.7765 373.862 55.3574 373.86 55.9447C373.86 57.5368 373.294 58.7166 372.161 59.4843L354.375 71.0812L372.628 91.7148C373.449 92.6244 373.86 93.6614 373.86 94.8275C373.86 95.4238 373.739 95.9927 373.499 96.5322C373.266 97.061 372.943 97.5446 372.544 97.9612C372.148 98.3734 371.681 98.6922 371.143 98.9194C370.591 99.1497 369.999 99.2659 369.402 99.2611C368.214 99.2611 367.222 98.8772 366.431 98.1096L346.818 75.9829L341.64 79.3942V94.7844C341.64 96.0064 341.208 97.058 340.344 97.9392C339.481 98.8205 338.442 99.2611 337.225 99.2611C335.979 99.2611 334.925 98.8205 334.062 97.9392C333.199 97.058 332.767 96.0064 332.767 94.7844V35.5246C332.767 34.2733 333.199 33.2153 334.062 32.3478C334.925 31.4812 335.979 31.0479 337.225 31.0479ZM402.431 51.5121C408.94 51.5121 414.544 53.8424 419.241 58.5032C421.561 60.8061 423.303 63.371 424.463 66.1988C425.623 69.0266 426.203 72.0889 426.203 75.3866C426.203 76.6653 425.772 77.7243 424.908 78.5624C424.045 79.4006 422.991 79.8202 421.746 79.8202H388.125C388.593 81.3559 389.31 82.8036 390.248 84.1044C391.163 85.3794 392.273 86.5015 393.537 87.4296C394.805 88.3582 396.209 89.0846 397.698 89.5832C399.212 90.0943 400.79 90.3508 402.431 90.3508C404.299 90.3508 406.011 90.0669 407.567 89.498C409.124 88.9301 410.568 88.0772 411.897 86.9395C412.716 86.2406 413.751 85.8489 414.825 85.8311C416.1 85.8311 417.154 86.2507 417.989 87.0889C418.824 87.9279 419.241 88.986 419.241 90.2656C419.241 91.516 418.817 92.5814 417.968 93.4626C413.58 97.3282 408.402 99.2611 402.431 99.2611C395.864 99.2611 390.261 96.9307 385.621 92.269C380.979 87.6082 378.658 81.9801 378.658 75.3866C378.658 68.7921 380.979 63.1649 385.621 58.5041C390.261 53.8415 395.864 51.5121 402.431 51.5121ZM454.859 51.5121C456.104 51.5121 457.441 51.5973 458.87 51.7676C460.299 51.938 461.616 52.244 462.819 52.6837C464.021 53.1243 465.019 53.7279 465.81 54.4956C466.604 55.2632 467 56.258 467 57.48C467 58.1056 466.879 58.6892 466.639 59.2287C466.406 59.7571 466.083 60.2405 465.684 60.6568C465.288 61.069 464.821 61.3887 464.283 61.6159C463.731 61.8458 463.139 61.9617 462.542 61.9566C462.004 61.9566 461.382 61.8009 460.674 61.4876C458.892 60.7777 456.953 60.4223 454.859 60.4223C452.793 60.4223 450.855 60.8125 449.043 61.5948C447.232 62.3762 445.655 63.4415 444.309 64.7918C442.966 66.142 441.904 67.7267 441.126 69.546C440.348 71.3643 439.959 73.3108 439.959 75.3866V94.8275C439.959 96.0495 439.527 97.0937 438.663 97.9603C437.8 98.8278 436.761 99.2611 435.544 99.2611C434.299 99.2611 433.244 98.8278 432.382 97.9603C431.518 97.0937 431.086 96.0495 431.086 94.8275V55.9456C431.086 54.7237 431.518 53.6785 432.382 52.8128C433.244 51.9453 434.299 51.5121 435.544 51.5121C436.761 51.5121 437.8 51.9453 438.663 52.8128C439.527 53.6785 439.959 54.7237 439.959 55.9456V56.7976C442.035 55.1184 444.373 53.7935 446.878 52.876C449.368 51.9664 452.028 51.5121 454.859 51.5121ZM205.622 60.4214C203.528 60.4214 201.575 60.8189 199.764 61.615C197.953 62.411 196.382 63.4837 195.052 64.8339C193.722 66.1841 192.667 67.7679 191.889 69.5881C191.111 71.4064 190.722 73.3392 190.722 75.3856C190.722 77.4321 191.111 79.3649 191.889 81.1841C192.667 83.0024 193.722 84.5872 195.052 85.9374C196.382 87.2867 197.952 88.3603 199.764 89.1563C201.575 89.9515 203.528 90.3499 205.622 90.3499C207.688 90.3499 209.626 89.9515 211.438 89.1563C213.207 88.3892 214.814 87.2891 216.172 85.9154C217.52 84.5452 218.6 82.9328 219.355 81.1621C220.133 79.3576 220.522 77.4321 220.522 75.3856C220.522 73.3392 220.133 71.4137 219.355 69.6082C218.6 67.8376 217.52 66.2252 216.172 64.855C214.814 63.4816 213.207 62.3818 211.438 61.615C209.626 60.8189 207.689 60.4214 205.622 60.4214ZM258.221 60.4214C256.127 60.4214 254.174 60.8189 252.362 61.615C250.551 62.411 248.98 63.4837 247.65 64.8339C246.32 66.1841 245.266 67.7679 244.487 69.5881C243.709 71.4064 243.32 73.3392 243.32 75.3856C243.32 77.4321 243.709 79.3649 244.487 81.1841C245.266 83.0024 246.32 84.5872 247.65 85.9374C248.98 87.2867 250.551 88.3603 252.362 89.1563C254.174 89.9515 256.127 90.3499 258.221 90.3499C260.287 90.3499 262.225 89.9515 264.036 89.1563C265.806 88.3892 267.413 87.2891 268.77 85.9154C270.118 84.5452 271.198 82.9328 271.953 81.1621C272.731 79.3576 273.121 77.4321 273.121 75.3856C273.121 73.3392 272.731 71.4137 271.953 69.6082C271.198 67.8376 270.118 66.2252 268.77 64.855C267.412 63.4816 265.806 62.3818 264.036 61.615C262.225 60.8189 260.287 60.4214 258.221 60.4214ZM402.431 60.4214C400.817 60.4214 399.247 60.6769 397.719 61.1881C396.217 61.6861 394.799 62.4121 393.516 63.3408C392.242 64.2647 391.124 65.3876 390.205 66.6669C389.27 67.9631 388.566 69.4128 388.125 70.9511H416.736C416.267 69.412 415.542 67.9635 414.593 66.6669C413.665 65.3945 412.549 64.273 411.282 63.3417C410.014 62.4135 408.61 61.6874 407.122 61.189C405.61 60.6777 404.026 60.4184 402.431 60.4214ZM29.7611 38.7206V54.8556H12.7821V38.7224H29.7611V38.7206ZM49.8275 38.7206V54.8556H32.8485V38.7224H49.8275V38.7206ZM69.8939 38.7206V54.8556H52.914V38.7224H69.8948L69.8939 38.7206ZM89.9603 38.7206V54.8556H72.9804V38.7224H89.9612L89.9603 38.7206ZM110.027 38.7206V54.8556H93.0469V38.7224H110.027V38.7206ZM89.9603 19.3603V35.4944H72.9804V19.3612H89.9612L89.9603 19.3603ZM69.8939 19.3603V35.4944H52.914V19.3612H69.8948L69.8939 19.3603ZM49.8275 19.3603V35.4944H32.8485V19.3612L49.8275 19.3603ZM89.9603 0V16.134H72.9804V0H89.9603Z" fill="white"/>
</g>
<defs>
<clipPath id="clip0_308_46">
<rect width="467" height="120" fill="white"/>
</clipPath>
</defs>
</svg>
