<svg width="234" height="99" viewBox="0 0 234 99" fill="none" xmlns="http://www.w3.org/2000/svg">
<g clip-path="url(#clip0_308_48)">
<path d="M139.837 34.1128C134.721 34.1128 130.911 36.6318 130.911 42.6947C130.911 47.2624 133.422 50.4341 139.561 50.4341C144.765 50.4341 148.299 47.3587 148.299 42.5049C148.299 37.0049 145.137 34.1128 139.837 34.1128ZM129.608 76.9221C128.397 78.4117 127.191 79.9957 127.191 81.8629C127.191 85.591 131.931 86.713 138.443 86.713C143.836 86.713 151.183 86.3335 151.183 81.3047C151.183 78.3154 147.648 78.1312 143.182 77.8507L129.608 76.9221ZM157.134 34.3942C158.805 36.5392 160.574 39.5248 160.574 43.8139C160.574 54.1649 152.484 60.2259 140.769 60.2259C137.79 60.2259 135.094 59.8537 133.422 59.3881L130.352 64.3289L139.464 64.8881C155.553 65.9166 165.035 66.3841 165.035 78.782C165.035 89.5088 155.646 95.5671 139.464 95.5671C122.633 95.5671 116.217 91.2771 116.217 83.9107C116.217 79.7142 118.077 77.4803 121.332 74.3976C118.262 73.0968 117.24 70.7667 117.24 68.2467C117.24 66.1934 118.262 64.3298 119.939 62.5561C121.611 60.7869 123.471 59.0132 125.703 56.9617C121.147 54.7232 117.705 49.874 117.705 42.9715C117.705 32.2492 124.773 24.8847 138.998 24.8847C142.998 24.8847 145.416 25.2532 147.555 25.817H165.69V33.7407L157.134 34.3942ZM182.05 17.4478C176.749 17.4478 173.68 14.3678 173.68 9.05024C173.68 3.73999 176.748 0.846069 182.05 0.846069C187.443 0.846069 190.512 3.73999 190.512 9.05024C190.512 14.3678 187.444 17.4478 182.05 17.4478ZM170.052 73.4901V66.1265L174.796 65.4757C176.099 65.2877 176.283 65.0091 176.283 63.6075V36.19C176.283 35.167 176.005 34.5107 175.072 34.2338L170.052 32.4601L171.074 24.9086H190.325V63.6075C190.325 65.1017 190.415 65.2877 191.814 65.4766L196.556 66.1274V73.4901H170.052ZM233.33 69.8747C229.33 71.8318 223.472 73.6037 218.169 73.6037C207.104 73.6037 202.921 69.1322 202.921 58.5887V34.1587C202.921 33.5995 202.921 33.2264 202.174 33.2264H195.666V24.9242C203.851 23.9892 207.104 19.8862 208.126 9.72124H216.962V22.9671C216.962 23.6179 216.962 23.8993 217.707 23.8993H230.817V33.2246H216.962V55.5115C216.962 61.0133 218.265 63.1565 223.284 63.1565C225.891 63.1565 228.585 62.5057 230.816 61.666L233.33 69.8747Z" fill="white"/>
<path d="M95.5461 45.4025L53.0276 2.76559C52.4453 2.18146 51.7539 1.71809 50.993 1.40195C50.2321 1.08581 49.4166 0.923096 48.593 0.923096C47.7694 0.923096 46.9538 1.08581 46.1929 1.40195C45.432 1.71809 44.7407 2.18146 44.1584 2.76559L35.3295 11.6206L46.5295 22.8516C47.846 22.4026 49.2616 22.3323 50.6159 22.6487C51.9701 22.9651 53.209 23.6556 54.1921 24.6418C55.1804 25.6343 55.8705 26.8856 56.1834 28.2527C56.4963 29.6198 56.4195 31.0476 55.9617 32.373L66.754 43.1979C69.3655 42.2959 72.3792 42.8798 74.4641 44.9744C75.1573 45.6692 75.7072 46.4941 76.0824 47.402C76.4576 48.3099 76.6507 49.2831 76.6507 50.2659C76.6507 51.2487 76.4576 52.2219 76.0824 53.1298C75.7072 54.0377 75.1573 54.8626 74.4641 55.5573C73.2446 56.7815 71.6396 57.5441 69.9225 57.7151C68.2054 57.8861 66.4823 57.4551 65.0464 56.4954C63.6106 55.5357 62.5507 54.1067 62.0472 52.4515C61.5438 50.7963 61.6279 49.0173 62.2852 47.4173L52.2195 37.323L52.2186 63.888C52.9483 64.2498 53.6148 64.7278 54.1921 65.3033C54.8852 65.9983 55.435 66.8234 55.8102 67.7314C56.1853 68.6395 56.3784 69.6128 56.3784 70.5957C56.3784 71.5786 56.1853 72.5519 55.8102 73.46C55.435 74.3681 54.8852 75.1932 54.1921 75.8881C51.2762 78.8123 46.5505 78.8123 43.6392 75.8881C42.7695 75.0165 42.128 73.9429 41.7717 72.7627C41.4154 71.5825 41.3555 70.3324 41.5972 69.1234C41.8389 67.9143 42.3747 66.784 43.1571 65.8327C43.9394 64.8814 44.944 64.1388 46.0816 63.6708V36.8583C45.1665 36.4835 44.3359 35.928 43.6392 35.2248C41.4308 33.0128 40.8998 29.7633 42.0314 27.0435L30.9913 15.9702L1.83823 45.2045C1.25567 45.7887 0.793562 46.4822 0.478283 47.2455C0.163005 48.0088 0.000732422 48.8269 0.000732422 49.6531C0.000732422 50.4793 0.163005 51.2974 0.478283 52.0607C0.793562 52.824 1.25567 53.5175 1.83823 54.1017L44.3568 96.7395C45.533 97.9188 47.1281 98.5812 48.7913 98.5812C50.4546 98.5812 52.0497 97.9188 53.2259 96.7395L95.5461 54.3006C96.7222 53.1204 97.3829 51.5201 97.3829 49.8516C97.3829 48.183 96.7222 46.5827 95.5461 45.4025Z" fill="white"/>
</g>
<defs>
<clipPath id="clip0_308_48">
<rect width="234" height="99" fill="white"/>
</clipPath>
</defs>
</svg>
