<svg width="147" height="206" viewBox="0 0 147 206" fill="none" xmlns="http://www.w3.org/2000/svg">
<g clip-path="url(#clip0_308_11)">
<path d="M73.4105 205.48L13.5873 188.976L0.255615 40.3817H146.745L133.399 188.953L73.4105 205.48Z" fill="white"/>
<path d="M121.974 179.492L133.378 52.5311H73.5V192.847L121.974 179.492Z" fill="white"/>
<path d="M30.8178 107.643L32.4612 125.867H73.5001V107.643H30.8178ZM27.5149 70.7561L29.1818 88.9805H73.5001V70.7561H27.5149ZM73.5001 154.974L73.4197 154.995L52.9958 149.514L51.6901 134.98H33.2806L35.8497 163.595L73.4156 173.958L73.5001 173.935V154.974Z" fill="#1E1E1E"/>
<path d="M34.731 0H56.9417V9.23063H44.0195V18.4613H56.9429V27.6913H34.731V0ZM61.3845 0H83.5958V8.02658H70.673V9.63178H83.5958V28.093H61.385V19.6642H74.3078V18.059H61.3839L61.3845 0ZM88.0385 0H110.25V8.02658H97.3271V9.63178H110.25V28.093H88.0385V19.6642H100.961V18.059H88.0391V0H88.0385Z" fill="white"/>
<path d="M116.065 107.643L119.376 70.7561H73.4369V88.9805H99.2778L97.6092 107.643H73.4369V125.867H96.0192L93.89 149.503L73.4363 154.989V173.949L111.032 163.595L111.308 160.516L115.618 112.536L116.065 107.643Z" fill="#1E1E1E"/>
</g>
<defs>
<clipPath id="clip0_308_11">
<rect width="147" height="206" fill="white"/>
</clipPath>
</defs>
</svg>
