<svg width="312" height="128" viewBox="0 0 312 128" fill="none" xmlns="http://www.w3.org/2000/svg">
<g clip-path="url(#clip0_308_32)">
<path opacity="0.1" d="M279.888 2.62858C279.827 2.87294 279.827 3.1173 279.888 3.36167C279.888 3.36167 280.678 8.55761 279.766 10.88L242.302 108.863C239.626 116.076 243.214 124.083 250.39 126.834C257.567 129.584 265.535 126.039 268.393 118.887L305.858 20.9044C306.587 19.0095 310.784 15.281 310.784 15.281C310.967 15.0972 311.149 14.9141 311.27 14.731V14.6698C311.27 14.6085 311.331 14.6085 311.331 14.5473C312.304 12.0418 306.04 7.27394 297.404 3.91225C288.767 0.549956 280.922 -0.122504 279.949 2.44485C279.949 2.44485 279.888 2.50609 279.888 2.62858Z" fill="black"/>
<path d="M278.793 1.77242C278.732 2.01739 278.732 2.26176 278.793 2.50612C278.793 2.50612 279.584 7.70145 278.671 10.0244L241.207 108.008C238.532 115.22 242.12 123.227 249.296 125.978C256.473 128.728 264.44 125.183 267.299 118.032L304.763 20.0489C305.493 18.154 309.689 14.4254 309.689 14.4254C309.872 14.2417 310.055 14.0586 310.176 13.8755V13.8142C310.176 13.753 310.237 13.753 310.237 13.6917C311.21 11.1856 304.946 6.41839 296.309 3.05609C287.672 -0.305593 279.827 -0.978052 278.854 1.5893C278.854 1.65054 278.854 1.71117 278.793 1.77242Z" fill="white"/>
<path d="M290.592 46.088L263.527 116.748C261.521 121.822 255.742 124.45 250.573 122.433C245.403 120.416 242.666 114.487 244.553 109.413L261.825 64.242C261.825 64.242 263.953 60.7578 268.211 58.2523C272.468 55.7456 275.935 56.2956 280.618 54.2175C285.361 52.1395 290.592 46.088 290.592 46.088Z" fill="#1E1E1E"/>
<path d="M303.716 11.6479C304.255 10.2338 300.375 7.41231 295.05 5.34593C289.724 3.27956 284.969 2.75041 284.431 4.16392C283.891 5.57805 287.772 8.39895 293.097 10.4659C298.423 12.5323 303.177 13.0615 303.716 11.6479Z" fill="#333333"/>
<path opacity="0.3" d="M278.541 2.49878C278.541 2.49878 279.327 7.68002 278.42 9.99627L241.2 107.703C238.542 114.895 242.107 122.88 249.237 125.623C250.445 126.111 251.714 126.415 252.983 126.476C250.598 124.646 248.859 122.096 248.022 119.2C247.184 116.304 247.292 113.215 248.33 110.385L284.825 14.6288C284.825 14.6288 279.81 9.93503 278.541 2.49878Z" fill="white"/>
<g opacity="0.5">
<path d="M266.578 66.6206C267.178 66.6206 267.665 66.1296 267.665 65.5238C267.665 64.918 267.178 64.4269 266.578 64.4269C265.977 64.4269 265.49 64.918 265.49 65.5238C265.49 66.1296 265.977 66.6206 266.578 66.6206Z" fill="white"/>
<path d="M273.647 75.0325C274.548 75.0325 275.278 74.2957 275.278 73.3868C275.278 72.478 274.548 71.7412 273.647 71.7412C272.746 71.7412 272.016 72.478 272.016 73.3868C272.016 74.2957 272.746 75.0325 273.647 75.0325Z" fill="white"/>
<path d="M262.831 85.8819C264.533 85.8819 265.913 84.4901 265.913 82.7732C265.913 81.0563 264.533 79.6644 262.831 79.6644C261.129 79.6644 259.75 81.0563 259.75 82.7732C259.75 84.4901 261.129 85.8819 262.831 85.8819Z" fill="white"/>
<path d="M257.877 90.1488C258.778 90.1488 259.508 89.412 259.508 88.5032C259.508 87.5943 258.778 86.8575 257.877 86.8575C256.976 86.8575 256.246 87.5943 256.246 88.5032C256.246 89.412 256.976 90.1488 257.877 90.1488Z" fill="white"/>
<path d="M264.342 101.79C264.943 101.79 265.43 101.299 265.43 100.693C265.43 100.087 264.943 99.5963 264.342 99.5963C263.741 99.5963 263.254 100.087 263.254 100.693C263.254 101.299 263.741 101.79 264.342 101.79Z" fill="white"/>
</g>
<path opacity="0.1" d="M73.4085 59.4894C75.0501 60.8307 78.0306 60.0382 80.0373 57.8438C82.1664 55.5275 82.4705 52.5413 80.8282 51.2C79.186 49.8588 76.2061 50.6513 74.1988 52.9675C72.0703 55.2838 71.7053 58.2094 73.4085 59.4894ZM68.4823 63.8169C68.0557 63.8169 67.2654 64.6094 67.9345 64.9144C68.8467 65.2188 69.2726 66.0113 69.2726 67.1088C68.4823 71.68 62.8255 76.8613 60.6366 78.6288C60.0887 79.1769 60.8797 80.3963 61.4269 79.97C62.6433 78.9944 65.1978 76.9832 67.2654 74.3013C63.8596 81.92 57.1698 91.7944 54.6153 95.2688C44.6411 109.105 29.4969 121.844 19.0973 121.844C10.7647 121.844 3.71059 116.175 2.18959 107.886C2.06772 106.971 0.851405 106.789 1.09455 108.008C2.97995 119.406 11.7379 123.855 22.3203 123.855C33.9368 123.855 47.5606 115.444 55.1016 106.789C67.2654 92.8307 75.1111 76.7388 73.0435 67.6569C72.1922 64.305 69.8199 63.7557 68.4823 63.8169ZM143.228 94.2325C146.452 93.44 149.067 91.6725 149.067 88.8688C149.067 88.5638 148.519 88.5638 148.519 88.8688C148.519 90.5144 146.634 91.9163 144.505 92.2213C139.518 93.0132 129.665 87.1619 125.043 81.1275C130.03 83.0169 140.187 80.2744 144.992 76.8C149.432 73.5694 151.195 70.0344 151.5 67.1694C152.047 62.415 146.877 59.6119 139.64 62.415C135.017 64.305 129.483 68.3888 123.706 76.0688C129.787 66.0113 141.769 49.5544 153.507 39.0707C167.799 26.3319 176.07 28.7694 163.238 42.3013C157.946 47.8475 147.972 55.04 141.099 58.1488C138.971 59.0632 140.005 60.2819 141.526 59.6113C148.823 56.3813 158.555 49.7369 164.454 44.19C181.848 27.4288 167.312 14.8113 148.093 32.5488C135.017 44.6169 126.503 57.2344 119.083 73.6307C116.529 76.7388 114.644 79.2988 112.332 81.2494C112.028 81.4932 111.846 81.7369 111.663 81.9813C105.277 87.4669 95.2424 94.9032 88.978 94.9638C84.5381 95.0863 82.6527 91.7332 83.4437 87.4063C84.66 80.64 91.6538 72.655 97.6141 69.9125C105.338 66.3769 109.899 73.265 99.7426 78.75C95.8505 80.7619 91.2284 81.8588 89.343 81.8588C87.1535 81.8588 87.3357 82.7732 89.2211 82.8344C92.3229 82.9563 97.31 81.6157 100.595 80.0913C110.994 75.0938 111.663 65.7675 100.351 65.4632C88.0658 65.0363 73.3475 75.52 73.4694 88.7469C73.5913 94.72 78.3347 97.9507 84.8422 97.9507C95.7287 97.8282 105.399 89.5388 113.366 82.225C114.522 81.2494 115.616 80.2132 116.711 79.1163C113.914 86.1869 112.515 92.7694 113.184 97.6457C113.61 101.181 115.616 102.827 117.198 104.168C117.502 104.411 118.171 104.168 117.745 103.497C115.434 100.754 116.103 92.5257 119.266 84.5413C121.942 89.905 132.342 96.6707 143.228 94.2325ZM130.152 71.1313C142.864 59.7338 147.85 69.9125 139.761 76.1294C135.565 79.36 127.233 81.7982 124.618 80.2132L124.07 79.9088C123.766 79.36 123.401 78.8113 123.158 78.2632C125.286 75.6419 127.72 73.3257 130.152 71.1313ZM200.823 58.1488C205.932 58.6969 203.803 52.48 198.634 54.065C196.323 54.735 194.073 59.185 192.43 63.025C187.322 70.6438 178.807 81.0669 172.847 86.5525C167.556 91.1238 162.69 92.3432 168.65 83.8094C171.083 80.3963 174.185 76.7388 175.949 73.0819C180.145 63.8782 171.205 59.7944 163.967 65.3407C159.771 68.5713 154.115 75.215 149.675 78.8725C148.458 79.8475 148.763 81.31 149.979 80.335C153.507 77.4707 159.71 70.8875 165.062 67.0475C169.502 63.6344 171.266 65.8288 168.711 68.6932C165.184 72.7769 158.98 79.9088 157.399 84.4188C155.21 91.185 157.825 94.1713 162.264 94.1713C168.346 94.1713 177.408 84.6632 183.49 77.105C185.497 74.545 187.686 71.5582 189.572 68.6932C184.281 78.9944 178.746 89.4169 171.874 98.865C162.143 112.153 149.979 122.149 138.423 122.149C130.091 122.149 122.915 116.48 121.394 108.191C121.272 107.276 120.178 107.093 120.299 108.313C122.185 119.71 130.943 124.16 141.525 124.16C153.142 124.16 164.332 117.394 172.178 109.105C187.991 92.3425 189.876 73.5088 194.742 62.9638C197.052 58.1488 199.121 57.9663 200.823 58.1488ZM265.17 42.0563C267.481 38.0944 267.359 34.9863 261.946 34.9863C257.871 35.1082 250.451 37.9725 246.985 40.6544C246.194 41.4469 246.559 41.8732 247.533 41.4469C248.201 41.2032 248.992 40.7763 249.722 40.4719C253.614 38.3382 252.033 42.7882 251.181 44.4338C246.559 52.5407 238.349 63.9382 234.031 69.6069C231.981 72.3793 229.767 75.0254 227.401 77.5307C223.265 81.4932 215.055 88.5025 208.791 90.8182C188.66 98.3763 214.325 63.9994 216.454 61.1957C221.198 55.2225 231.84 44.7994 235.064 39.5575C237.375 35.5951 237.254 32.4869 231.84 32.4869C227.766 32.6094 220.346 35.4738 216.88 38.1557C216.089 38.9482 216.454 39.3744 217.427 38.9482C218.096 38.7044 218.886 38.2775 219.616 37.9725C223.509 35.8394 221.928 40.2888 221.076 41.935C216.454 50.0413 208.244 61.4394 203.925 67.1082C200.398 71.8625 196.08 76.6163 192.734 79.2982C191.397 80.3957 192.187 81.4319 193.525 80.5175C194.742 79.725 196.505 77.9575 198.513 75.885C194.863 83.1994 191.883 93.5007 201.492 94.7194C209.703 95.8163 219.434 87.4663 225.759 81.2488L228.009 78.9938L228.557 78.445C224.908 85.7594 221.928 96.0607 231.536 97.2794C242.058 98.7425 255.134 84.5407 260.183 79.2982C261.156 78.3232 260.852 76.6163 259.209 78.3232C256.229 81.4319 246.133 90.6357 238.835 93.3782C218.704 100.936 244.37 66.5594 246.498 63.7557C251.303 57.6607 261.946 47.2369 265.17 42.0563Z" fill="black"/>
<path d="M72.3132 58.4532C73.9555 59.7944 76.9353 59.0019 78.9426 56.8075C81.0712 54.4913 81.3753 51.505 79.733 50.1638C78.0913 48.8225 75.1109 49.615 73.1042 51.9313C70.9757 54.2475 70.671 57.1119 72.3132 58.4532ZM67.448 62.7813C67.022 62.7813 66.2317 63.5732 66.9008 63.8782C67.813 64.1831 68.2384 64.975 68.2384 66.0725C67.448 70.6438 61.7912 75.825 59.6023 77.5925C59.0551 78.1413 59.846 79.36 60.3927 78.9338C61.6096 77.9582 64.1635 75.9469 66.2317 73.265C62.8253 80.8838 56.1356 90.7581 53.5811 94.2325C43.6068 108.069 28.4626 120.808 18.063 120.808C9.73104 120.808 2.67631 115.139 1.15531 106.85C1.03343 105.935 -0.182272 105.753 0.0608685 106.971C1.94627 118.369 10.7042 122.819 21.2866 122.819C32.9031 122.819 46.5263 114.408 54.0679 105.753C66.2311 91.7944 74.0774 75.7031 72.0092 66.6213C71.0969 63.2075 68.7856 62.6588 67.448 62.7813ZM142.133 93.1963C145.357 92.4038 147.972 90.6363 147.972 87.8325C147.972 87.5275 147.424 87.5275 147.424 87.8325C147.424 89.4781 145.539 90.88 143.41 91.185C138.423 91.9769 128.571 86.1263 123.949 80.0913C128.936 81.9813 139.092 79.2381 143.897 75.7638C148.337 72.5332 150.101 68.9982 150.405 66.1332C150.952 61.3788 145.783 58.5756 138.545 61.3788C133.923 63.2688 128.388 67.3525 122.61 75.0325C128.692 64.975 140.674 48.5181 152.412 38.0344C166.704 25.2956 174.975 27.7332 162.142 41.265C156.851 46.8113 146.878 54.0038 140.004 57.1125C137.876 58.0269 138.91 59.2457 140.43 58.575C147.729 55.345 157.459 48.7013 163.359 43.1538C180.753 26.3925 166.217 13.775 146.999 31.5125C133.923 43.52 125.409 56.1981 117.988 72.5944C115.434 75.7031 113.548 78.2631 111.237 80.2132C110.933 80.4569 110.751 80.7013 110.569 80.945C104.182 86.4306 94.1471 93.8669 87.8828 93.9275C83.4435 94.05 81.5575 90.6969 82.3484 86.37C83.5647 79.6038 90.5592 71.6188 96.5194 68.8763C104.243 65.3413 108.804 72.2288 98.648 77.7138C94.7553 79.7256 90.1332 80.8231 88.2478 80.8231C86.0583 80.8231 86.2411 81.7369 88.1259 81.7982C91.2276 81.92 96.2154 80.5794 99.4993 79.055C109.899 74.0575 110.569 64.7313 99.2555 64.4269C86.9705 64 72.2523 74.4838 72.3742 87.7106C72.4961 93.6838 77.2394 96.9144 83.7476 96.9144C94.634 96.7919 104.304 88.5031 112.271 81.1888C113.427 80.2131 114.522 79.1769 115.617 78.08C112.818 85.1506 111.42 91.7332 112.088 96.6094C112.515 100.145 114.522 101.791 116.103 103.132C116.407 103.375 117.076 103.132 116.65 102.461C114.339 99.7181 115.008 91.4894 118.171 83.505C120.907 88.8688 131.307 95.6344 142.133 93.1963ZM129.057 70.0338C141.769 58.6363 146.756 68.815 138.667 75.0325C134.47 78.2631 126.138 80.7013 123.523 79.1163L122.975 78.8113C122.671 78.2631 122.306 77.7144 122.063 77.1657C124.192 74.6057 126.624 72.2282 129.057 70.0338ZM199.729 57.1131C204.837 57.6619 202.709 51.4444 197.539 53.0294C195.228 53.6994 192.977 58.1494 191.336 61.9894C186.227 69.6081 177.712 80.0313 171.752 85.5169C166.46 90.0881 161.595 91.3075 167.556 82.7738C169.988 79.3606 173.09 75.7038 174.854 72.0463C179.05 62.8425 170.11 58.7588 162.872 64.305C158.676 67.5356 153.02 74.1794 148.58 77.8369C147.364 78.8119 147.668 80.2744 148.884 79.2994C152.412 76.435 158.615 69.8519 163.967 66.0119C168.407 62.5988 170.17 64.7931 167.616 67.6575C164.089 71.7419 157.885 78.8731 156.304 83.3838C154.115 90.1494 156.73 93.1356 161.169 93.1356C167.251 93.1356 176.313 83.6275 182.395 76.0694C184.402 73.5094 186.592 70.5225 188.477 67.6575C183.186 77.9588 177.652 88.3819 170.779 97.8294C161.047 111.117 148.884 121.113 137.329 121.113C128.997 121.113 121.82 115.444 120.299 107.155C120.177 106.241 119.083 106.058 119.205 107.277C121.09 118.674 129.848 123.124 140.43 123.124C152.047 123.124 163.237 116.359 171.083 108.069C186.896 91.3069 188.781 72.4731 193.647 61.9281C195.958 57.1131 198.086 56.8694 199.728 57.1131H199.729ZM264.075 40.96C266.386 36.9981 266.265 33.8894 260.851 33.8894C256.777 34.0119 249.357 36.8763 245.89 39.5582C245.099 40.3506 245.464 40.7769 246.437 40.3506C247.106 40.1069 247.897 39.68 248.627 39.375C252.519 37.2419 250.938 41.6913 250.086 43.3375C245.464 51.4438 237.254 62.8419 232.935 68.5106C230.886 71.283 228.672 73.9291 226.307 76.4344C222.171 80.3963 213.961 87.4056 207.696 89.7219C187.565 97.28 213.231 62.9031 215.359 60.0988C220.103 54.1257 230.746 43.7031 233.969 38.4613C236.281 34.4988 236.159 31.3906 230.746 31.3906C226.671 31.5125 219.251 34.3769 215.784 37.0588C214.994 37.8513 215.359 38.2781 216.332 37.8513C217.001 37.6075 217.792 37.1813 218.522 36.8763C222.414 34.7431 220.833 39.1925 219.981 40.8381C215.359 48.945 207.148 60.3431 202.83 66.0113C199.303 70.7656 194.985 75.52 191.64 78.2019C190.302 79.2988 191.093 80.335 192.43 79.4207C193.646 78.6288 195.41 76.8607 197.417 74.7888C193.768 82.1031 190.788 92.4038 200.397 93.6231C208.608 94.72 218.339 86.3694 224.664 80.1525L226.915 77.8969L227.462 77.3488C223.813 84.6631 220.833 94.9638 230.442 96.1831C240.964 97.6456 254.04 83.4444 259.088 78.2019C260.06 77.2269 259.756 75.52 258.115 77.2269C255.135 80.335 245.039 89.5388 237.74 92.2819C217.61 99.84 243.275 65.4631 245.403 62.6588C250.269 56.5638 260.851 46.1413 264.074 40.96H264.075Z" fill="white"/>
</g>
<defs>
<clipPath id="clip0_308_32">
<rect width="312" height="128" fill="white"/>
</clipPath>
</defs>
</svg>
