<svg width="100" height="100" viewBox="0 0 100 100" fill="none" xmlns="http://www.w3.org/2000/svg">
<rect width="100" height="100" rx="50" fill="#1F1F20"/>
<path d="M49.5 16C53.2793 16 56.9039 17.5013 59.5763 20.1737C62.2487 22.8461 63.75 26.4707 63.75 30.25C63.75 34.0293 62.2487 37.6539 59.5763 40.3263C56.9039 42.9987 53.2793 44.5 49.5 44.5C45.7207 44.5 42.0961 42.9987 39.4237 40.3263C36.7513 37.6539 35.25 34.0293 35.25 30.25C35.25 26.4707 36.7513 22.8461 39.4237 20.1737C42.0961 17.5013 45.7207 16 49.5 16ZM49.5 51.625C65.2463 51.625 78 58.0019 78 65.875V73H21V65.875C21 58.0019 33.7537 51.625 49.5 51.625Z" fill="#F8F8F8"/>
</svg>
