<svg width="43" height="43" viewBox="0 0 43 43" fill="none" xmlns="http://www.w3.org/2000/svg">
<path d="M4 21.5C4 11.84 11.84 4 21.5 4C31.16 4 39 11.84 39 21.5C39 31.16 31.16 39 21.5 39C11.84 39 4 31.16 4 21.5Z" fill="black"/>
<path fill-rule="evenodd" clip-rule="evenodd" d="M21.5 39C31.165 39 39 31.165 39 21.5C39 11.835 31.165 4 21.5 4C11.835 4 4 11.835 4 21.5C4 31.165 11.835 39 21.5 39ZM14.9704 12.1348C14.6957 12.2385 14.4462 12.3994 14.2384 12.6069L13.0105 13.8348C12.1318 14.7135 11.7458 16.0281 12.1757 17.2512C13.2784 20.3844 15.0724 23.2291 17.4244 25.5744C19.7701 27.9267 22.6152 29.7206 25.7488 30.8232C26.9731 31.2542 28.2865 30.8683 29.1653 29.9895L30.3931 28.7617C31.2743 27.8817 31.184 26.427 30.1996 25.6611L27.4612 23.5307C27.2132 23.338 26.9246 23.2042 26.6172 23.1394C26.3099 23.0746 25.9918 23.0805 25.6871 23.1567L23.0876 23.8062C22.9528 23.84 22.8114 23.8383 22.6774 23.8013C22.5434 23.7642 22.4213 23.6931 22.3229 23.5949L19.4052 20.6772C19.3071 20.5789 19.2361 20.457 19.1991 20.3232C19.1621 20.1894 19.1602 20.0483 19.1938 19.9136L19.8434 17.313C19.9978 16.6955 19.86 16.0412 19.4693 15.5389L17.3378 12.8005C17.1574 12.5688 16.9299 12.378 16.6702 12.2409C16.4106 12.1038 16.1248 12.0234 15.8317 12.0051C15.5386 11.9868 15.245 12.031 14.9704 12.1348Z" fill="#FFBB00"/>
</svg>
