<svg width="43" height="43" viewBox="0 0 43 43" fill="none" xmlns="http://www.w3.org/2000/svg">
<path d="M3.58337 21.5C3.58337 11.61 11.61 3.58333 21.5 3.58333C31.39 3.58333 39.4167 11.61 39.4167 21.5C39.4167 31.39 31.39 39.4167 21.5 39.4167C11.61 39.4167 3.58337 31.39 3.58337 21.5Z" fill="black"/>
<path d="M21.5 3.58334C11.61 3.58334 3.58337 11.61 3.58337 21.5C3.58337 31.39 11.61 39.4167 21.5 39.4167C31.39 39.4167 39.4167 31.39 39.4167 21.5C39.4167 11.61 31.39 3.58334 21.5 3.58334ZM29.8134 15.7667C29.5446 18.5975 28.38 25.4775 27.7888 28.6488C27.538 29.9925 27.0363 30.4404 26.5705 30.4942C25.5313 30.5838 24.743 29.8133 23.7396 29.1504C22.163 28.1113 21.2671 27.4663 19.7442 26.4629C17.9705 25.2983 19.1171 24.6533 20.1384 23.6142C20.4071 23.3454 24.9938 19.1708 25.0834 18.7946C25.0958 18.7376 25.0942 18.6784 25.0786 18.6222C25.0629 18.566 25.0338 18.5145 24.9938 18.4721C24.8863 18.3825 24.743 18.4183 24.6175 18.4363C24.4563 18.4721 21.948 20.1383 17.0567 23.435C16.34 23.9188 15.695 24.1696 15.1217 24.1517C14.4767 24.1338 13.2584 23.7933 12.3446 23.4888C11.2159 23.1304 10.338 22.9333 10.4096 22.3063C10.4455 21.9838 10.8934 21.6613 11.7355 21.3208C16.9671 19.0454 20.443 17.5404 22.1809 16.8238C27.1617 14.7454 28.183 14.3871 28.8638 14.3871C29.0071 14.3871 29.3475 14.4229 29.5625 14.6021C29.7417 14.7454 29.7955 14.9425 29.8134 15.0858C29.7955 15.1933 29.8313 15.5158 29.8134 15.7667Z" fill="#FFBB00"/>
</svg>
